<?xml version="1.0" encoding="UTF-8"?>
<svg xmlns="http://www.w3.org/2000/svg" baseProfile="tiny" version="1.2" viewBox="0 0 680 487.205">
  <!-- Generator: Adobe Illustrator 28.6.0, SVG Export Plug-In . SVG Version: 1.2.0 Build 709)  -->
  <g>
    <g id="g-scatter_profit-margin_avg1-full-size-interactions-img">
      <g>
        <g id="upper-middle">
          <path id="highlight" d="M316.776,54.458c33.262-5.589,137.712,45.148,162.985,100.393,14.53,31.763,32.887,125.731,17.16,151.37-8.312,13.551-18.3,7.828-54.829,13.551-8.514,1.334-47.183,3.211-54.977,29.921-12.865,44.085-19.36,64.292-38.777,74.676-38.688,20.688-129.545,3.205-141.992-2.518-18.531-8.52-73.986-33.193-89.81-44.894-14.027-10.372-19.65-44.352-8.471-57.185,32.222-36.992,157.951-29.94,156.436-108.793-1.384-72.058,14.838-150.23,52.275-156.52Z" fill="#fed7a0" stroke="#fff" stroke-miterlimit="10"/>
          <circle cx="338.358" cy="270.142" r="2.359" fill="#fed7a0" stroke="#fff" stroke-miterlimit="10" stroke-width=".5"/>
          <circle cx="360.85" cy="267.516" r="2.359" fill="#fed7a0" stroke="#fff" stroke-miterlimit="10" stroke-width=".5"/>
          <circle cx="487.55" cy="300.752" r="2.359" fill="#fed7a0" stroke="#fff" stroke-miterlimit="10" stroke-width=".5"/>
          <circle cx="392.573" cy="311.69" r="2.359" fill="#fed7a0" stroke="#fff" stroke-miterlimit="10" stroke-width=".5"/>
          <circle cx="464.501" cy="306.221" r="2.359" fill="#fed7a0" stroke="#fff" stroke-miterlimit="10" stroke-width=".5"/>
          <circle cx="302.581" cy="329.402" r="2.359" fill="#fed7a0" stroke="#fff" stroke-miterlimit="10" stroke-width=".5"/>
          <circle cx="448.264" cy="272.767" r="2.359" fill="#fed7a0" stroke="#fff" stroke-miterlimit="10" stroke-width=".5"/>
          <circle cx="338.176" cy="217.003" r="2.359" fill="#fed7a0" stroke="#fff" stroke-miterlimit="10" stroke-width=".5"/>
          <circle cx="467.998" cy="165.619" r="2.359" fill="#fed7a0" stroke="#fff" stroke-miterlimit="10" stroke-width=".5"/>
          <circle cx="298.891" cy="213.507" r="2.359" fill="#fed7a0" stroke="#fff" stroke-miterlimit="10" stroke-width=".5"/>
          <circle cx="208.706" cy="295.066" r="2.359" fill="#fed7a0" stroke="#fff" stroke-miterlimit="10" stroke-width=".5"/>
          <circle cx="279.339" cy="195.358" r="2.359" fill="#fed7a0" stroke="#fff" stroke-miterlimit="10" stroke-width=".5"/>
          <circle cx="226.418" cy="355.197" r="2.359" fill="#fed7a0" stroke="#fff" stroke-miterlimit="10" stroke-width=".5"/>
          <circle cx="273.81" cy="371.821" r="2.359" fill="#fed7a0" stroke="#fff" stroke-miterlimit="10" stroke-width=".5"/>
          <circle cx="153.571" cy="347.333" r="2.359" fill="#fed7a0" stroke="#fff" stroke-miterlimit="10" stroke-width=".5"/>
          <circle cx="396.626" cy="217.221" r="2.359" fill="#fed7a0" stroke="#fff" stroke-miterlimit="10" stroke-width=".5"/>
          <circle cx="341.116" cy="418.838" r="2.359" fill="#fed7a0" stroke="#fff" stroke-miterlimit="10" stroke-width=".5"/>
          <circle cx="320.838" cy="66.553" r="2.359" fill="#fed7a0" stroke="#fff" stroke-miterlimit="10" stroke-width=".5"/>
          <circle cx="202.075" cy="405.71" r="2.359" fill="#fed7a0" stroke="#fff" stroke-miterlimit="10" stroke-width=".5"/>
          <circle cx="118.895" cy="326.995" r="2.359" fill="#fed7a0" stroke="#fff" stroke-miterlimit="10" stroke-width=".5"/>
          <circle cx="250.205" cy="319.772" r="2.359" fill="#fed7a0" stroke="#fff" stroke-miterlimit="10" stroke-width=".5"/>
          <circle cx="225.487" cy="419.491" r="2.359" fill="#fed7a0" stroke="#fff" stroke-miterlimit="10" stroke-width=".5"/>
          <circle cx="125.719" cy="370.067" r="2.359" fill="#fed7a0" stroke="#fff" stroke-miterlimit="10" stroke-width=".5"/>
          <circle cx="295.019" cy="325.24" r="2.359" fill="#fed7a0" stroke="#fff" stroke-miterlimit="10" stroke-width=".5"/>
          <circle cx="319.544" cy="152.492" r="2.359" fill="#fed7a0" stroke="#fff" stroke-miterlimit="10" stroke-width=".5"/>
        </g>
        <g id="upper">
          <path id="highlight-2" data-name="highlight" d="M423.291,40.132c64.817,13.739,50.939,112.931,82.651,167.683,12.884,22.244,87.545,71.243,93.299,114.098,3.453,25.713-23.404,50.634-87.531,33.466-79.693-21.335-213.012,71.413-279.838,58.89-29.295-5.49-45.297-17.38-51.238-22.235-39.997-32.688-41.96-88.108-42.537-104.41-1.988-56.128,43.033-74.537,100.081-127.473,52.51-48.725,114.015-135.088,185.113-120.018Z" fill="#f7931d" stroke="#fff" stroke-miterlimit="10"/>
          <circle cx="329.32" cy="352.354" r="2.359" fill="#f7931d" stroke="#fff" stroke-miterlimit="10" stroke-width=".5"/>
          <circle cx="424.853" cy="236.023" r="2.359" fill="#f7931d" stroke="#fff" stroke-miterlimit="10" stroke-width=".5"/>
          <circle cx="405.858" cy="182.449" r="2.359" fill="#f7931d" stroke="#fff" stroke-miterlimit="10" stroke-width=".5"/>
          <circle cx="364.733" cy="233.845" r="2.359" fill="#f7931d" stroke="#fff" stroke-miterlimit="10" stroke-width=".5"/>
          <circle cx="323.972" cy="289.161" r="2.359" fill="#f7931d" stroke="#fff" stroke-miterlimit="10" stroke-width=".5"/>
          <circle cx="186.395" cy="262.919" r="2.359" fill="#f7931d" stroke="#fff" stroke-miterlimit="10" stroke-width=".5"/>
          <circle cx="420.05" cy="353.02" r="2.359" fill="#f7931d" stroke="#fff" stroke-miterlimit="10" stroke-width=".5"/>
          <circle cx="256.291" cy="336.178" r="2.359" fill="#f7931d" stroke="#fff" stroke-miterlimit="10" stroke-width=".5"/>
          <circle cx="305.34" cy="319.554" r="2.359" fill="#f7931d" stroke="#fff" stroke-miterlimit="10" stroke-width=".5"/>
          <circle cx="449.002" cy="298.78" r="2.359" fill="#f7931d" stroke="#fff" stroke-miterlimit="10" stroke-width=".5"/>
          <circle cx="310.324" cy="294.412" r="2.359" fill="#f7931d" stroke="#fff" stroke-miterlimit="10" stroke-width=".5"/>
          <circle cx="410.83" cy="273.203" r="2.359" fill="#f7931d" stroke="#fff" stroke-miterlimit="10" stroke-width=".5"/>
          <circle cx="389.076" cy="329.185" r="2.359" fill="#f7931d" stroke="#fff" stroke-miterlimit="10" stroke-width=".5"/>
          <circle cx="410.83" cy="51.684" r="2.359" fill="#f7931d" stroke="#fff" stroke-miterlimit="10" stroke-width=".5"/>
          <circle cx="411.75" cy="304.684" r="2.359" fill="#f7931d" stroke="#fff" stroke-miterlimit="10" stroke-width=".5"/>
          <circle cx="478.887" cy="260.959" r="2.359" fill="#f7931d" stroke="#fff" stroke-miterlimit="10" stroke-width=".5"/>
          <circle cx="418.767" cy="160.15" r="2.359" fill="#f7931d" stroke="#fff" stroke-miterlimit="10" stroke-width=".5"/>
          <circle cx="491.058" cy="222.908" r="2.359" fill="#f7931d" stroke="#fff" stroke-miterlimit="10" stroke-width=".5"/>
          <circle cx="354.764" cy="295.066" r="2.359" fill="#f7931d" stroke="#fff" stroke-miterlimit="10" stroke-width=".5"/>
          <circle cx="425.954" cy="283.475" r="2.359" fill="#f7931d" stroke="#fff" stroke-miterlimit="10" stroke-width=".5"/>
          <circle cx="277.682" cy="320.655" r="2.359" fill="#f7931d" stroke="#fff" stroke-miterlimit="10" stroke-width=".5"/>
          <circle cx="578.28" cy="333.117" r="2.359" fill="#f7931d" stroke="#fff" stroke-miterlimit="10" stroke-width=".5"/>
          <circle cx="188.972" cy="384.066" r="2.359" fill="#f7931d" stroke="#fff" stroke-miterlimit="10" stroke-width=".5"/>
          <circle cx="314.015" cy="248.932" r="2.359" fill="#f7931d" stroke="#fff" stroke-miterlimit="10" stroke-width=".5"/>
          <circle cx="237.295" cy="289.379" r="2.359" fill="#f7931d" stroke="#fff" stroke-miterlimit="10" stroke-width=".5"/>
          <circle cx="278.057" cy="134.126" r="2.359" fill="#f7931d" stroke="#fff" stroke-miterlimit="10" stroke-width=".5"/>
          <circle cx="244.301" cy="219.411" r="2.359" fill="#f7931d" stroke="#fff" stroke-miterlimit="10" stroke-width=".5"/>
          <circle cx="226.418" cy="403.303" r="2.359" fill="#f7931d" stroke="#fff" stroke-miterlimit="10" stroke-width=".5"/>
          <circle cx="148.404" cy="290.698" r="2.359" fill="#f7931d" stroke="#fff" stroke-miterlimit="10" stroke-width=".5"/>
          <circle cx="235.819" cy="294.63" r="2.359" fill="#f7931d" stroke="#fff" stroke-miterlimit="10" stroke-width=".5"/>
        </g>
        <g id="lower">
          <path id="highlight-3" data-name="highlight" d="M656.064,379.57c13.892-43.284-86.547-126.514-185.498-151.39-18.819-4.731-89.359-21.518-164.579,5.996-55.928,20.457-53.511,43.118-113.6,62.866-71.269,23.423-110.315,3.261-135.659,34.19-17.749,21.66-22.592,60.827-6.617,84.925,29.293,44.187,116.098,18.857,288.964,1.103,75.676-7.772,134.728-1.545,180.285-3.237,92.259-3.428,129.168-10.97,136.705-34.452Z" fill="#02718e" stroke="#fff" stroke-miterlimit="10"/>
          <circle cx="303.138" cy="296.82" r="2.359" fill="#02718e" stroke="#fff" stroke-miterlimit="10" stroke-width=".5"/>
          <circle cx="460.255" cy="236.906" r="2.359" fill="#02718e" stroke="#fff" stroke-miterlimit="10" stroke-width=".5"/>
          <circle cx="318.806" cy="348.422" r="2.359" fill="#02718e" stroke="#fff" stroke-miterlimit="10" stroke-width=".5"/>
          <circle cx="225.487" cy="375.536" r="2.359" fill="#02718e" stroke="#fff" stroke-miterlimit="10" stroke-width=".5"/>
          <circle cx="333.748" cy="361.537" r="2.359" fill="#02718e" stroke="#fff" stroke-miterlimit="10" stroke-width=".5"/>
          <circle cx="360.668" cy="298.562" r="2.359" fill="#02718e" stroke="#fff" stroke-miterlimit="10" stroke-width=".5"/>
          <circle cx="346.839" cy="289.379" r="2.359" fill="#02718e" stroke="#fff" stroke-miterlimit="10" stroke-width=".5"/>
          <circle cx="193.219" cy="338.803" r="2.359" fill="#02718e" stroke="#fff" stroke-miterlimit="10" stroke-width=".5"/>
          <circle cx="241.167" cy="379.032" r="2.359" fill="#02718e" stroke="#fff" stroke-miterlimit="10" stroke-width=".5"/>
          <circle cx="641.908" cy="383.63" r="2.359" fill="#02718e" stroke="#fff" stroke-miterlimit="10" stroke-width=".5"/>
          <circle cx="110.789" cy="363.074" r="2.359" fill="#02718e" stroke="#fff" stroke-miterlimit="10" stroke-width=".5"/>
          <circle cx="203.914" cy="306.439" r="2.359" fill="#02718e" stroke="#fff" stroke-miterlimit="10" stroke-width=".5"/>
          <circle cx="326.549" cy="311.907" r="2.359" fill="#02718e" stroke="#fff" stroke-miterlimit="10" stroke-width=".5"/>
          <circle cx="108.938" cy="414.022" r="2.359" fill="#02718e" stroke="#fff" stroke-miterlimit="10" stroke-width=".5"/>
          <circle cx="243.381" cy="341.647" r="2.359" fill="#02718e" stroke="#fff" stroke-miterlimit="10" stroke-width=".5"/>
          <circle cx="271.039" cy="372.91" r="2.359" fill="#02718e" stroke="#fff" stroke-miterlimit="10" stroke-width=".5"/>
          <circle cx="134.019" cy="384.066" r="2.359" fill="#02718e" stroke="#fff" stroke-miterlimit="10" stroke-width=".5"/>
          <circle cx="338.176" cy="289.815" r="2.359" fill="#02718e" stroke="#fff" stroke-miterlimit="10" stroke-width=".5"/>
          <circle cx="267.906" cy="332.028" r="2.359" fill="#02718e" stroke="#fff" stroke-miterlimit="10" stroke-width=".5"/>
          <circle cx="205.572" cy="369.196" r="2.359" fill="#02718e" stroke="#fff" stroke-miterlimit="10" stroke-width=".5"/>
          <circle cx="301.843" cy="251.11" r="2.359" fill="#02718e" stroke="#fff" stroke-miterlimit="10" stroke-width=".5"/>
          <circle cx="193.957" cy="420.798" r="2.359" fill="#02718e" stroke="#fff" stroke-miterlimit="10" stroke-width=".5"/>
          <circle cx="400.51" cy="271.666" r="2.359" fill="#02718e" stroke="#fff" stroke-miterlimit="10" stroke-width=".5"/>
          <circle cx="181.785" cy="332.464" r="2.359" fill="#02718e" stroke="#fff" stroke-miterlimit="10" stroke-width=".5"/>
          <circle cx="107.643" cy="345.361" r="2.359" fill="#02718e" stroke="#fff" stroke-miterlimit="10" stroke-width=".5"/>
          <circle cx="121.666" cy="407.029" r="2.359" fill="#02718e" stroke="#fff" stroke-miterlimit="10" stroke-width=".5"/>
          <circle cx="70.209" cy="339.675" r="2.359" fill="#02718e" stroke="#fff" stroke-miterlimit="10" stroke-width=".5"/>
          <circle cx="82.756" cy="341.429" r="2.359" fill="#02718e" stroke="#fff" stroke-miterlimit="10" stroke-width=".5"/>
          <circle cx="307.372" cy="249.804" r="2.359" fill="#02718e" stroke="#fff" stroke-miterlimit="10" stroke-width=".5"/>
          <circle cx="58.413" cy="403.75" r="2.359" transform="translate(-347.058 448.695) rotate(-88.093)" fill="#02718e" stroke="#fff" stroke-miterlimit="10" stroke-width=".5"/>
          <circle cx="190.448" cy="376.855" r="2.359" fill="#02718e" stroke="#fff" stroke-miterlimit="10" stroke-width=".5"/>
          <circle cx="506.545" cy="408.989" r="2.359" fill="#02718e" stroke="#fff" stroke-miterlimit="10" stroke-width=".5"/>
        </g>
        <g id="lower-middle">
          <path id="highlight-4" data-name="highlight" d="M606.693,434.375c19.208-6.242-58.997-167.087-105.788-189.436-35.137-16.782-108.187-7.642-247.738-16.91-61.738-4.1-94.137,6.869-112.881,21.617-73.571,57.887-101.492,109.824-69.028,156.794,24.248,35.083,56.929,28.455,71.617,27.935,70.126-2.484,173.606-13.58,217.602-15.929,44.425-2.372,204.84,29.374,246.216,15.929Z" fill="#9abec8" stroke="#fff" stroke-miterlimit="10"/>
          <circle cx="372.477" cy="242.581" r="2.359" fill="#9abec8" stroke="#fff" stroke-miterlimit="10" stroke-width=".5"/>
          <circle cx="298.516" cy="390.623" r="2.359" fill="#9abec8" stroke="#fff" stroke-miterlimit="10" stroke-width=".5"/>
          <circle cx="363.995" cy="331.145" r="2.359" fill="#9abec8" stroke="#fff" stroke-miterlimit="10" stroke-width=".5"/>
          <circle cx="230.096" cy="352.354" r="2.359" fill="#9abec8" stroke="#fff" stroke-miterlimit="10" stroke-width=".5"/>
          <circle cx="477.774" cy="270.577" r="2.359" fill="#9abec8" stroke="#fff" stroke-miterlimit="10" stroke-width=".5"/>
          <circle cx="402.906" cy="331.363" r="2.359" fill="#9abec8" stroke="#fff" stroke-miterlimit="10" stroke-width=".5"/>
          <circle cx="172.566" cy="356.952" r="2.359" fill="#9abec8" stroke="#fff" stroke-miterlimit="10" stroke-width=".5"/>
          <circle cx="234.162" cy="381.44" r="2.359" fill="#9abec8" stroke="#fff" stroke-miterlimit="10" stroke-width=".5"/>
          <circle cx="184.181" cy="368.107" r="2.359" fill="#9abec8" stroke="#fff" stroke-miterlimit="10" stroke-width=".5"/>
          <circle cx="178.095" cy="333.117" r="2.359" fill="#9abec8" stroke="#fff" stroke-miterlimit="10" stroke-width=".5"/>
          <circle cx="244.482" cy="340.11" r="2.359" fill="#9abec8" stroke="#fff" stroke-miterlimit="10" stroke-width=".5"/>
          <circle cx="294.838" cy="328.519" r="2.359" fill="#9abec8" stroke="#fff" stroke-miterlimit="10" stroke-width=".5"/>
          <circle cx="308.292" cy="410.526" r="2.359" fill="#9abec8" stroke="#fff" stroke-miterlimit="10" stroke-width=".5"/>
          <circle cx="90.68" cy="383.848" r="2.359" fill="#9abec8" stroke="#fff" stroke-miterlimit="10" stroke-width=".5"/>
          <circle cx="174.224" cy="343.389" r="2.359" fill="#9abec8" stroke="#fff" stroke-miterlimit="10" stroke-width=".5"/>
          <circle cx="297.971" cy="351.265" r="2.359" fill="#9abec8" stroke="#fff" stroke-miterlimit="10" stroke-width=".5"/>
          <circle cx="235.819" cy="356.516" r="2.359" fill="#9abec8" stroke="#fff" stroke-miterlimit="10" stroke-width=".5"/>
          <circle cx="305.34" cy="341.864" r="2.359" fill="#9abec8" stroke="#fff" stroke-miterlimit="10" stroke-width=".5"/>
          <circle cx="444.586" cy="335.307" r="2.359" fill="#9abec8" stroke="#fff" stroke-miterlimit="10" stroke-width=".5"/>
          <circle cx="226.043" cy="260.741" r="2.359" fill="#9abec8" stroke="#fff" stroke-miterlimit="10" stroke-width=".5"/>
          <circle cx="150.619" cy="254.837" r="2.359" fill="#9abec8" stroke="#fff" stroke-miterlimit="10" stroke-width=".5"/>
          <circle cx="259.606" cy="241.709" r="2.359" fill="#9abec8" stroke="#fff" stroke-miterlimit="10" stroke-width=".5"/>
          <circle cx="195.796" cy="322.833" r="2.359" fill="#9abec8" stroke="#fff" stroke-miterlimit="10" stroke-width=".5"/>
          <circle cx="142.5" cy="431.082" r="2.359" fill="#9abec8" stroke="#fff" stroke-miterlimit="10" stroke-width=".5"/>
          <circle cx="419.312" cy="300.97" r="2.359" fill="#9abec8" stroke="#fff" stroke-miterlimit="10" stroke-width=".5"/>
          <circle cx="220.514" cy="325.24" r="2.359" fill="#9abec8" stroke="#fff" stroke-miterlimit="10" stroke-width=".5"/>
          <circle cx="140.286" cy="391.942" r="2.359" fill="#9abec8" stroke="#fff" stroke-miterlimit="10" stroke-width=".5"/>
          <circle cx="193.219" cy="373.564" r="2.359" fill="#9abec8" stroke="#fff" stroke-miterlimit="10" stroke-width=".5"/>
          <circle cx="219.219" cy="355.863" r="2.359" fill="#9abec8" stroke="#fff" stroke-miterlimit="10" stroke-width=".5"/>
          <circle cx="167.775" cy="386.255" r="2.359" fill="#9abec8" stroke="#fff" stroke-miterlimit="10" stroke-width=".5"/>
          <circle cx="595.992" cy="431.082" r="2.359" fill="#9abec8" stroke="#fff" stroke-miterlimit="10" stroke-width=".5"/>
          <circle cx="86.071" cy="401.561" r="2.359" fill="#9abec8" stroke="#fff" stroke-miterlimit="10" stroke-width=".5"/>
        </g>
      </g>
    </g>
  </g>
<style>
#g-scatter_profit-margin_avg1-full-size-interactions-img rect, #g-scatter_profit-margin_avg1-full-size-interactions-img circle, #g-scatter_profit-margin_avg1-full-size-interactions-img path, #g-scatter_profit-margin_avg1-full-size-interactions-img line, #g-scatter_profit-margin_avg1-full-size-interactions-img polyline, #g-scatter_profit-margin_avg1-full-size-interactions-img polygon { vector-effect: non-scaling-stroke; }
</style>
</svg>
