<?xml version="1.0" encoding="UTF-8"?>
<svg xmlns="http://www.w3.org/2000/svg" baseProfile="tiny" version="1.2" viewBox="0 0 375 324.34">
  <!-- Generator: Adobe Illustrator 28.6.0, SVG Export Plug-In . SVG Version: 1.2.0 Build 709)  -->
  <g>
    <g id="g-scatter_profit-margin_avg1-mobile-interactions-img">
      <g>
        <g id="upper-middle">
          <path id="highlight" d="M175.958,36.838c18.346-3.706,75.958,29.941,89.897,66.578,8.014,21.064,18.139,83.382,9.465,100.385-4.584,8.987-10.094,5.191-30.242,8.987-4.696.885-26.025,2.13-30.324,19.843-7.096,29.236-10.678,42.637-21.388,49.523-21.339,13.72-71.453,2.125-78.318-1.67-10.221-5.65-40.808-22.013-49.537-29.773-7.737-6.879-10.838-29.413-4.673-37.924,17.773-24.532,87.121-19.855,86.285-72.149-.763-47.787,8.184-99.629,28.833-103.801Z" fill="#fed7a0" stroke="#fff" stroke-miterlimit="10"/>
          <ellipse cx="187.861" cy="179.874" rx="1.431" ry="1.565" fill="#fed7a0" stroke="#fff" stroke-miterlimit="10" stroke-width=".5"/>
          <ellipse cx="200.267" cy="178.133" rx="1.431" ry="1.565" fill="#fed7a0" stroke="#fff" stroke-miterlimit="10" stroke-width=".5"/>
          <ellipse cx="270.151" cy="200.174" rx="1.431" ry="1.565" fill="#fed7a0" stroke="#fff" stroke-miterlimit="10" stroke-width=".5"/>
          <ellipse cx="217.765" cy="207.428" rx="1.431" ry="1.565" fill="#fed7a0" stroke="#fff" stroke-miterlimit="10" stroke-width=".5"/>
          <ellipse cx="257.438" cy="203.801" rx="1.431" ry="1.565" fill="#fed7a0" stroke="#fff" stroke-miterlimit="10" stroke-width=".5"/>
          <ellipse cx="168.128" cy="219.175" rx="1.431" ry="1.565" fill="#fed7a0" stroke="#fff" stroke-miterlimit="10" stroke-width=".5"/>
          <ellipse cx="248.482" cy="181.616" rx="1.431" ry="1.565" fill="#fed7a0" stroke="#fff" stroke-miterlimit="10" stroke-width=".5"/>
          <ellipse cx="187.761" cy="144.634" rx="1.431" ry="1.565" fill="#fed7a0" stroke="#fff" stroke-miterlimit="10" stroke-width=".5"/>
          <ellipse cx="259.367" cy="110.557" rx="1.431" ry="1.565" fill="#fed7a0" stroke="#fff" stroke-miterlimit="10" stroke-width=".5"/>
          <ellipse cx="166.093" cy="142.315" rx="1.431" ry="1.565" fill="#fed7a0" stroke="#fff" stroke-miterlimit="10" stroke-width=".5"/>
          <ellipse cx="116.349" cy="196.403" rx="1.431" ry="1.565" fill="#fed7a0" stroke="#fff" stroke-miterlimit="10" stroke-width=".5"/>
          <ellipse cx="155.308" cy="130.28" rx="1.431" ry="1.565" fill="#fed7a0" stroke="#fff" stroke-miterlimit="10" stroke-width=".5"/>
          <ellipse cx="126.119" cy="236.281" rx="1.431" ry="1.565" fill="#fed7a0" stroke="#fff" stroke-miterlimit="10" stroke-width=".5"/>
          <ellipse cx="152.259" cy="247.306" rx="1.431" ry="1.565" fill="#fed7a0" stroke="#fff" stroke-miterlimit="10" stroke-width=".5"/>
          <ellipse cx="85.938" cy="231.066" rx="1.431" ry="1.565" fill="#fed7a0" stroke="#fff" stroke-miterlimit="10" stroke-width=".5"/>
          <ellipse cx="220" cy="144.779" rx="1.431" ry="1.565" fill="#fed7a0" stroke="#fff" stroke-miterlimit="10" stroke-width=".5"/>
          <ellipse cx="189.383" cy="278.486" rx="1.431" ry="1.565" fill="#fed7a0" stroke="#fff" stroke-miterlimit="10" stroke-width=".5"/>
          <ellipse cx="178.198" cy="44.859" rx="1.431" ry="1.565" fill="#fed7a0" stroke="#fff" stroke-miterlimit="10" stroke-width=".5"/>
          <ellipse cx="112.692" cy="269.78" rx="1.431" ry="1.565" fill="#fed7a0" stroke="#fff" stroke-miterlimit="10" stroke-width=".5"/>
          <ellipse cx="66.812" cy="217.578" rx="1.431" ry="1.565" fill="#fed7a0" stroke="#fff" stroke-miterlimit="10" stroke-width=".5"/>
          <ellipse cx="139.239" cy="212.788" rx="1.431" ry="1.565" fill="#fed7a0" stroke="#fff" stroke-miterlimit="10" stroke-width=".5"/>
          <ellipse cx="125.605" cy="278.919" rx="1.431" ry="1.565" fill="#fed7a0" stroke="#fff" stroke-miterlimit="10" stroke-width=".5"/>
          <ellipse cx="70.576" cy="246.142" rx="1.431" ry="1.565" fill="#fed7a0" stroke="#fff" stroke-miterlimit="10" stroke-width=".5"/>
          <ellipse cx="163.957" cy="216.414" rx="1.431" ry="1.565" fill="#fed7a0" stroke="#fff" stroke-miterlimit="10" stroke-width=".5"/>
          <ellipse cx="177.484" cy="101.852" rx="1.431" ry="1.565" fill="#fed7a0" stroke="#fff" stroke-miterlimit="10" stroke-width=".5"/>
        </g>
        <g id="upper">
          <path id="highlight-2" data-name="highlight" d="M234.708,27.338c35.751,9.111,28.096,74.893,45.588,111.203,7.106,14.752,48.287,47.247,51.461,75.667,1.904,17.052-12.909,33.579-48.279,22.194-43.956-14.149-117.491,47.359-154.35,39.054-16.158-3.641-24.984-11.526-28.261-14.746-22.061-21.678-23.144-58.431-23.462-69.242-1.096-37.223,23.736-49.431,55.202-84.537,28.963-32.313,62.887-89.587,102.103-79.593Z" fill="#f7931d" stroke="#fff" stroke-miterlimit="10"/>
          <ellipse cx="182.876" cy="234.396" rx="1.431" ry="1.565" fill="#f7931d" stroke="#fff" stroke-miterlimit="10" stroke-width=".5"/>
          <ellipse cx="235.569" cy="157.247" rx="1.431" ry="1.565" fill="#f7931d" stroke="#fff" stroke-miterlimit="10" stroke-width=".5"/>
          <ellipse cx="225.092" cy="121.718" rx="1.431" ry="1.565" fill="#f7931d" stroke="#fff" stroke-miterlimit="10" stroke-width=".5"/>
          <ellipse cx="202.409" cy="155.803" rx="1.431" ry="1.565" fill="#f7931d" stroke="#fff" stroke-miterlimit="10" stroke-width=".5"/>
          <ellipse cx="179.927" cy="192.488" rx="1.431" ry="1.565" fill="#f7931d" stroke="#fff" stroke-miterlimit="10" stroke-width=".5"/>
          <ellipse cx="104.043" cy="175.084" rx="1.431" ry="1.565" fill="#f7931d" stroke="#fff" stroke-miterlimit="10" stroke-width=".5"/>
          <ellipse cx="232.92" cy="234.837" rx="1.431" ry="1.565" fill="#f7931d" stroke="#fff" stroke-miterlimit="10" stroke-width=".5"/>
          <ellipse cx="142.596" cy="223.668" rx="1.431" ry="1.565" fill="#f7931d" stroke="#fff" stroke-miterlimit="10" stroke-width=".5"/>
          <ellipse cx="169.649" cy="212.643" rx="1.431" ry="1.565" fill="#f7931d" stroke="#fff" stroke-miterlimit="10" stroke-width=".5"/>
          <ellipse cx="248.889" cy="198.867" rx="1.431" ry="1.565" fill="#f7931d" stroke="#fff" stroke-miterlimit="10" stroke-width=".5"/>
          <ellipse cx="172.399" cy="195.97" rx="1.431" ry="1.565" fill="#f7931d" stroke="#fff" stroke-miterlimit="10" stroke-width=".5"/>
          <ellipse cx="227.835" cy="181.904" rx="1.431" ry="1.565" fill="#f7931d" stroke="#fff" stroke-miterlimit="10" stroke-width=".5"/>
          <ellipse cx="215.836" cy="219.03" rx="1.431" ry="1.565" fill="#f7931d" stroke="#fff" stroke-miterlimit="10" stroke-width=".5"/>
          <ellipse cx="227.835" cy="34.998" rx="1.431" ry="1.565" fill="#f7931d" stroke="#fff" stroke-miterlimit="10" stroke-width=".5"/>
          <ellipse cx="228.342" cy="202.782" rx="1.431" ry="1.565" fill="#f7931d" stroke="#fff" stroke-miterlimit="10" stroke-width=".5"/>
          <ellipse cx="265.373" cy="173.784" rx="1.431" ry="1.565" fill="#f7931d" stroke="#fff" stroke-miterlimit="10" stroke-width=".5"/>
          <ellipse cx="232.213" cy="106.931" rx="1.431" ry="1.565" fill="#f7931d" stroke="#fff" stroke-miterlimit="10" stroke-width=".5"/>
          <ellipse cx="272.086" cy="148.55" rx="1.431" ry="1.565" fill="#f7931d" stroke="#fff" stroke-miterlimit="10" stroke-width=".5"/>
          <ellipse cx="196.91" cy="196.403" rx="1.431" ry="1.565" fill="#f7931d" stroke="#fff" stroke-miterlimit="10" stroke-width=".5"/>
          <ellipse cx="236.177" cy="188.717" rx="1.431" ry="1.565" fill="#f7931d" stroke="#fff" stroke-miterlimit="10" stroke-width=".5"/>
          <ellipse cx="154.394" cy="213.373" rx="1.431" ry="1.565" fill="#f7931d" stroke="#fff" stroke-miterlimit="10" stroke-width=".5"/>
          <ellipse cx="320.195" cy="221.638" rx="1.431" ry="1.565" fill="#f7931d" stroke="#fff" stroke-miterlimit="10" stroke-width=".5"/>
          <ellipse cx="105.465" cy="255.426" rx="1.431" ry="1.565" fill="#f7931d" stroke="#fff" stroke-miterlimit="10" stroke-width=".5"/>
          <ellipse cx="174.434" cy="165.809" rx="1.431" ry="1.565" fill="#f7931d" stroke="#fff" stroke-miterlimit="10" stroke-width=".5"/>
          <ellipse cx="132.118" cy="192.632" rx="1.431" ry="1.565" fill="#f7931d" stroke="#fff" stroke-miterlimit="10" stroke-width=".5"/>
          <ellipse cx="154.601" cy="89.672" rx="1.431" ry="1.565" fill="#f7931d" stroke="#fff" stroke-miterlimit="10" stroke-width=".5"/>
          <ellipse cx="135.982" cy="146.231" rx="1.431" ry="1.565" fill="#f7931d" stroke="#fff" stroke-miterlimit="10" stroke-width=".5"/>
          <ellipse cx="126.119" cy="268.184" rx="1.431" ry="1.565" fill="#f7931d" stroke="#fff" stroke-miterlimit="10" stroke-width=".5"/>
          <ellipse cx="83.089" cy="193.507" rx="1.431" ry="1.565" fill="#f7931d" stroke="#fff" stroke-miterlimit="10" stroke-width=".5"/>
          <ellipse cx="131.304" cy="196.114" rx="1.431" ry="1.565" fill="#f7931d" stroke="#fff" stroke-miterlimit="10" stroke-width=".5"/>
        </g>
        <g id="lower">
          <path id="highlight-3" data-name="highlight" d="M363.098,252.445c7.663-28.705-47.737-83.901-102.315-100.398-10.38-3.138-49.288-14.27-90.776,3.976-30.848,13.567-29.515,28.595-62.658,41.691-39.31,15.534-60.846,2.163-74.825,22.674-9.79,14.364-12.461,40.339-3.65,56.32,16.157,29.304,64.036,12.506,159.384.731,41.74-5.154,74.312-1.025,99.439-2.147,50.887-2.273,71.245-7.275,75.402-22.848Z" fill="#02718e" stroke="#fff" stroke-miterlimit="10"/>
          <ellipse cx="168.435" cy="197.567" rx="1.431" ry="1.565" fill="#02718e" stroke="#fff" stroke-miterlimit="10" stroke-width=".5"/>
          <ellipse cx="255.096" cy="157.833" rx="1.431" ry="1.565" fill="#02718e" stroke="#fff" stroke-miterlimit="10" stroke-width=".5"/>
          <ellipse cx="177.077" cy="231.788" rx="1.431" ry="1.565" fill="#02718e" stroke="#fff" stroke-miterlimit="10" stroke-width=".5"/>
          <ellipse cx="125.605" cy="249.769" rx="1.431" ry="1.565" fill="#02718e" stroke="#fff" stroke-miterlimit="10" stroke-width=".5"/>
          <ellipse cx="185.319" cy="240.486" rx="1.431" ry="1.565" fill="#02718e" stroke="#fff" stroke-miterlimit="10" stroke-width=".5"/>
          <ellipse cx="200.167" cy="198.722" rx="1.431" ry="1.565" fill="#02718e" stroke="#fff" stroke-miterlimit="10" stroke-width=".5"/>
          <ellipse cx="192.539" cy="192.632" rx="1.431" ry="1.565" fill="#02718e" stroke="#fff" stroke-miterlimit="10" stroke-width=".5"/>
          <ellipse cx="107.807" cy="225.409" rx="1.431" ry="1.565" fill="#02718e" stroke="#fff" stroke-miterlimit="10" stroke-width=".5"/>
          <ellipse cx="134.254" cy="252.088" rx="1.431" ry="1.565" fill="#02718e" stroke="#fff" stroke-miterlimit="10" stroke-width=".5"/>
          <ellipse cx="355.29" cy="255.137" rx="1.431" ry="1.565" fill="#02718e" stroke="#fff" stroke-miterlimit="10" stroke-width=".5"/>
          <ellipse cx="62.341" cy="241.505" rx="1.431" ry="1.565" fill="#02718e" stroke="#fff" stroke-miterlimit="10" stroke-width=".5"/>
          <ellipse cx="113.706" cy="203.946" rx="1.431" ry="1.565" fill="#02718e" stroke="#fff" stroke-miterlimit="10" stroke-width=".5"/>
          <ellipse cx="181.348" cy="207.572" rx="1.431" ry="1.565" fill="#02718e" stroke="#fff" stroke-miterlimit="10" stroke-width=".5"/>
          <ellipse cx="61.32" cy="275.293" rx="1.431" ry="1.565" fill="#02718e" stroke="#fff" stroke-miterlimit="10" stroke-width=".5"/>
          <ellipse cx="135.475" cy="227.295" rx="1.431" ry="1.565" fill="#02718e" stroke="#fff" stroke-miterlimit="10" stroke-width=".5"/>
          <ellipse cx="150.73" cy="248.028" rx="1.431" ry="1.565" fill="#02718e" stroke="#fff" stroke-miterlimit="10" stroke-width=".5"/>
          <ellipse cx="75.154" cy="255.426" rx="1.431" ry="1.565" fill="#02718e" stroke="#fff" stroke-miterlimit="10" stroke-width=".5"/>
          <ellipse cx="187.761" cy="192.921" rx="1.431" ry="1.565" fill="#02718e" stroke="#fff" stroke-miterlimit="10" stroke-width=".5"/>
          <ellipse cx="149.002" cy="220.916" rx="1.431" ry="1.565" fill="#02718e" stroke="#fff" stroke-miterlimit="10" stroke-width=".5"/>
          <ellipse cx="114.621" cy="245.565" rx="1.431" ry="1.565" fill="#02718e" stroke="#fff" stroke-miterlimit="10" stroke-width=".5"/>
          <ellipse cx="167.721" cy="167.253" rx="1.431" ry="1.565" fill="#02718e" stroke="#fff" stroke-miterlimit="10" stroke-width=".5"/>
          <ellipse cx="108.214" cy="279.786" rx="1.431" ry="1.565" fill="#02718e" stroke="#fff" stroke-miterlimit="10" stroke-width=".5"/>
          <ellipse cx="222.142" cy="180.885" rx="1.431" ry="1.565" fill="#02718e" stroke="#fff" stroke-miterlimit="10" stroke-width=".5"/>
          <ellipse cx="101.501" cy="221.205" rx="1.431" ry="1.565" fill="#02718e" stroke="#fff" stroke-miterlimit="10" stroke-width=".5"/>
          <ellipse cx="60.606" cy="229.758" rx="1.431" ry="1.565" fill="#02718e" stroke="#fff" stroke-miterlimit="10" stroke-width=".5"/>
          <ellipse cx="68.341" cy="270.655" rx="1.431" ry="1.565" fill="#02718e" stroke="#fff" stroke-miterlimit="10" stroke-width=".5"/>
          <ellipse cx="39.959" cy="225.987" rx="1.431" ry="1.565" fill="#02718e" stroke="#fff" stroke-miterlimit="10" stroke-width=".5"/>
          <ellipse cx="46.879" cy="227.15" rx="1.431" ry="1.565" fill="#02718e" stroke="#fff" stroke-miterlimit="10" stroke-width=".5"/>
          <ellipse cx="170.771" cy="166.387" rx="1.431" ry="1.565" fill="#02718e" stroke="#fff" stroke-miterlimit="10" stroke-width=".5"/>
          <ellipse cx="33.452" cy="268.48" rx="1.431" ry="1.565" fill="#02718e" stroke="#fff" stroke-miterlimit="10" stroke-width=".5"/>
          <ellipse cx="106.279" cy="250.644" rx="1.431" ry="1.565" fill="#02718e" stroke="#fff" stroke-miterlimit="10" stroke-width=".5"/>
          <ellipse cx="280.628" cy="271.955" rx="1.431" ry="1.565" fill="#02718e" stroke="#fff" stroke-miterlimit="10" stroke-width=".5"/>
        </g>
        <g id="lower-middle">
          <path id="highlight-4" data-name="highlight" d="M335.866,288.79c10.594-4.139-32.541-110.808-58.349-125.629-19.381-11.129-59.673-5.068-136.645-11.214-34.053-2.719-51.923,4.555-62.261,14.336-40.579,38.389-55.98,72.833-38.074,103.982,13.375,23.266,31.4,18.871,39.502,18.526,38.679-1.647,95.755-9.006,120.022-10.564,24.504-1.573,112.984,19.48,135.805,10.564Z" fill="#9abec8" stroke="#fff" stroke-miterlimit="10"/>
          <ellipse cx="206.68" cy="161.596" rx="1.431" ry="1.565" fill="#9abec8" stroke="#fff" stroke-miterlimit="10" stroke-width=".5"/>
          <ellipse cx="165.886" cy="259.775" rx="1.431" ry="1.565" fill="#9abec8" stroke="#fff" stroke-miterlimit="10" stroke-width=".5"/>
          <ellipse cx="202.002" cy="220.33" rx="1.431" ry="1.565" fill="#9abec8" stroke="#fff" stroke-miterlimit="10" stroke-width=".5"/>
          <ellipse cx="128.148" cy="234.396" rx="1.431" ry="1.565" fill="#9abec8" stroke="#fff" stroke-miterlimit="10" stroke-width=".5"/>
          <ellipse cx="264.759" cy="180.163" rx="1.431" ry="1.565" fill="#9abec8" stroke="#fff" stroke-miterlimit="10" stroke-width=".5"/>
          <ellipse cx="223.464" cy="220.474" rx="1.431" ry="1.565" fill="#9abec8" stroke="#fff" stroke-miterlimit="10" stroke-width=".5"/>
          <ellipse cx="96.416" cy="237.445" rx="1.431" ry="1.565" fill="#9abec8" stroke="#fff" stroke-miterlimit="10" stroke-width=".5"/>
          <ellipse cx="130.39" cy="253.685" rx="1.431" ry="1.565" fill="#9abec8" stroke="#fff" stroke-miterlimit="10" stroke-width=".5"/>
          <ellipse cx="102.822" cy="244.843" rx="1.431" ry="1.565" fill="#9abec8" stroke="#fff" stroke-miterlimit="10" stroke-width=".5"/>
          <ellipse cx="99.465" cy="221.638" rx="1.431" ry="1.565" fill="#9abec8" stroke="#fff" stroke-miterlimit="10" stroke-width=".5"/>
          <ellipse cx="136.082" cy="226.276" rx="1.431" ry="1.565" fill="#9abec8" stroke="#fff" stroke-miterlimit="10" stroke-width=".5"/>
          <ellipse cx="163.857" cy="218.589" rx="1.431" ry="1.565" fill="#9abec8" stroke="#fff" stroke-miterlimit="10" stroke-width=".5"/>
          <ellipse cx="171.278" cy="272.974" rx="1.431" ry="1.565" fill="#9abec8" stroke="#fff" stroke-miterlimit="10" stroke-width=".5"/>
          <ellipse cx="51.25" cy="255.281" rx="1.431" ry="1.565" fill="#9abec8" stroke="#fff" stroke-miterlimit="10" stroke-width=".5"/>
          <ellipse cx="97.33" cy="228.45" rx="1.431" ry="1.565" fill="#9abec8" stroke="#fff" stroke-miterlimit="10" stroke-width=".5"/>
          <ellipse cx="165.585" cy="233.674" rx="1.431" ry="1.565" fill="#9abec8" stroke="#fff" stroke-miterlimit="10" stroke-width=".5"/>
          <ellipse cx="131.304" cy="237.156" rx="1.431" ry="1.565" fill="#9abec8" stroke="#fff" stroke-miterlimit="10" stroke-width=".5"/>
          <ellipse cx="169.649" cy="227.439" rx="1.431" ry="1.565" fill="#9abec8" stroke="#fff" stroke-miterlimit="10" stroke-width=".5"/>
          <ellipse cx="246.454" cy="223.09" rx="1.431" ry="1.565" fill="#9abec8" stroke="#fff" stroke-miterlimit="10" stroke-width=".5"/>
          <ellipse cx="125.912" cy="173.64" rx="1.431" ry="1.565" fill="#9abec8" stroke="#fff" stroke-miterlimit="10" stroke-width=".5"/>
          <ellipse cx="84.31" cy="169.724" rx="1.431" ry="1.565" fill="#9abec8" stroke="#fff" stroke-miterlimit="10" stroke-width=".5"/>
          <ellipse cx="144.424" cy="161.019" rx="1.431" ry="1.565" fill="#9abec8" stroke="#fff" stroke-miterlimit="10" stroke-width=".5"/>
          <ellipse cx="109.229" cy="214.818" rx="1.431" ry="1.565" fill="#9abec8" stroke="#fff" stroke-miterlimit="10" stroke-width=".5"/>
          <ellipse cx="79.832" cy="286.606" rx="1.431" ry="1.565" fill="#9abec8" stroke="#fff" stroke-miterlimit="10" stroke-width=".5"/>
          <ellipse cx="232.513" cy="200.319" rx="1.431" ry="1.565" fill="#9abec8" stroke="#fff" stroke-miterlimit="10" stroke-width=".5"/>
          <ellipse cx="122.862" cy="216.414" rx="1.431" ry="1.565" fill="#9abec8" stroke="#fff" stroke-miterlimit="10" stroke-width=".5"/>
          <ellipse cx="78.611" cy="260.649" rx="1.431" ry="1.565" fill="#9abec8" stroke="#fff" stroke-miterlimit="10" stroke-width=".5"/>
          <ellipse cx="107.807" cy="248.461" rx="1.431" ry="1.565" fill="#9abec8" stroke="#fff" stroke-miterlimit="10" stroke-width=".5"/>
          <ellipse cx="122.148" cy="236.723" rx="1.431" ry="1.565" fill="#9abec8" stroke="#fff" stroke-miterlimit="10" stroke-width=".5"/>
          <ellipse cx="93.773" cy="256.878" rx="1.431" ry="1.565" fill="#9abec8" stroke="#fff" stroke-miterlimit="10" stroke-width=".5"/>
          <ellipse cx="329.964" cy="286.606" rx="1.431" ry="1.565" fill="#9abec8" stroke="#fff" stroke-miterlimit="10" stroke-width=".5"/>
          <ellipse cx="48.708" cy="267.028" rx="1.431" ry="1.565" fill="#9abec8" stroke="#fff" stroke-miterlimit="10" stroke-width=".5"/>
        </g>
      </g>
    </g>
  </g>
<style>
#g-scatter_profit-margin_avg1-mobile-interactions-img rect, #g-scatter_profit-margin_avg1-mobile-interactions-img circle, #g-scatter_profit-margin_avg1-mobile-interactions-img path, #g-scatter_profit-margin_avg1-mobile-interactions-img line, #g-scatter_profit-margin_avg1-mobile-interactions-img polyline, #g-scatter_profit-margin_avg1-mobile-interactions-img polygon { vector-effect: non-scaling-stroke; }
</style>
</svg>
