<?xml version="1.0" encoding="UTF-8"?>
<svg xmlns="http://www.w3.org/2000/svg" baseProfile="tiny" version="1.2" viewBox="0 0 490 343.972">
  <!-- Generator: Adobe Illustrator 28.6.0, SVG Export Plug-In . SVG Version: 1.2.0 Build 709)  -->
  <g>
    <g id="g-scatter_profit-margin_avg1-laptop-interactions-img">
      <g>
        <g id="upper-middle">
          <path id="highlight" d="M229.447,33.904c24.009-4.034,99.403,32.589,117.646,72.466,10.488,22.927,23.738,90.755,12.387,109.262-6,9.781-13.21,5.65-39.577,9.781-6.145.963-34.058,2.318-39.684,21.597-9.286,31.821-13.974,46.407-27.99,53.902-27.926,14.933-93.508,2.313-102.492-1.817-13.376-6.15-53.405-23.959-64.827-32.405-10.125-7.487-14.184-32.014-6.115-41.277,23.258-26.701,114.012-21.611,112.919-78.529-.999-52.013,10.71-108.439,37.733-112.98Z" fill="#fed7a0" stroke="#fff" stroke-miterlimit="10"/>
          <ellipse cx="245.025" cy="189.589" rx="1.873" ry="1.703" fill="#fed7a0" stroke="#fff" stroke-miterlimit="10" stroke-width=".5"/>
          <ellipse cx="261.26" cy="187.694" rx="1.873" ry="1.703" fill="#fed7a0" stroke="#fff" stroke-miterlimit="10" stroke-width=".5"/>
          <ellipse cx="352.714" cy="211.684" rx="1.873" ry="1.703" fill="#fed7a0" stroke="#fff" stroke-miterlimit="10" stroke-width=".5"/>
          <ellipse cx="284.158" cy="219.579" rx="1.873" ry="1.703" fill="#fed7a0" stroke="#fff" stroke-miterlimit="10" stroke-width=".5"/>
          <ellipse cx="336.078" cy="215.631" rx="1.873" ry="1.703" fill="#fed7a0" stroke="#fff" stroke-miterlimit="10" stroke-width=".5"/>
          <ellipse cx="219.2" cy="232.364" rx="1.873" ry="1.703" fill="#fed7a0" stroke="#fff" stroke-miterlimit="10" stroke-width=".5"/>
          <ellipse cx="324.358" cy="191.484" rx="1.873" ry="1.703" fill="#fed7a0" stroke="#fff" stroke-miterlimit="10" stroke-width=".5"/>
          <ellipse cx="244.894" cy="151.232" rx="1.873" ry="1.703" fill="#fed7a0" stroke="#fff" stroke-miterlimit="10" stroke-width=".5"/>
          <ellipse cx="338.601" cy="114.142" rx="1.873" ry="1.703" fill="#fed7a0" stroke="#fff" stroke-miterlimit="10" stroke-width=".5"/>
          <ellipse cx="216.537" cy="148.708" rx="1.873" ry="1.703" fill="#fed7a0" stroke="#fff" stroke-miterlimit="10" stroke-width=".5"/>
          <ellipse cx="151.439" cy="207.579" rx="1.873" ry="1.703" fill="#fed7a0" stroke="#fff" stroke-miterlimit="10" stroke-width=".5"/>
          <ellipse cx="202.424" cy="135.608" rx="1.873" ry="1.703" fill="#fed7a0" stroke="#fff" stroke-miterlimit="10" stroke-width=".5"/>
          <ellipse cx="164.225" cy="250.983" rx="1.873" ry="1.703" fill="#fed7a0" stroke="#fff" stroke-miterlimit="10" stroke-width=".5"/>
          <ellipse cx="198.433" cy="262.983" rx="1.873" ry="1.703" fill="#fed7a0" stroke="#fff" stroke-miterlimit="10" stroke-width=".5"/>
          <ellipse cx="111.642" cy="245.307" rx="1.873" ry="1.703" fill="#fed7a0" stroke="#fff" stroke-miterlimit="10" stroke-width=".5"/>
          <ellipse cx="287.084" cy="151.389" rx="1.873" ry="1.703" fill="#fed7a0" stroke="#fff" stroke-miterlimit="10" stroke-width=".5"/>
          <ellipse cx="247.016" cy="296.92" rx="1.873" ry="1.703" fill="#fed7a0" stroke="#fff" stroke-miterlimit="10" stroke-width=".5"/>
          <ellipse cx="232.379" cy="42.634" rx="1.873" ry="1.703" fill="#fed7a0" stroke="#fff" stroke-miterlimit="10" stroke-width=".5"/>
          <ellipse cx="146.653" cy="287.445" rx="1.873" ry="1.703" fill="#fed7a0" stroke="#fff" stroke-miterlimit="10" stroke-width=".5"/>
          <ellipse cx="86.612" cy="230.626" rx="1.873" ry="1.703" fill="#fed7a0" stroke="#fff" stroke-miterlimit="10" stroke-width=".5"/>
          <ellipse cx="181.394" cy="225.412" rx="1.873" ry="1.703" fill="#fed7a0" stroke="#fff" stroke-miterlimit="10" stroke-width=".5"/>
          <ellipse cx="163.552" cy="297.392" rx="1.873" ry="1.703" fill="#fed7a0" stroke="#fff" stroke-miterlimit="10" stroke-width=".5"/>
          <ellipse cx="91.538" cy="261.717" rx="1.873" ry="1.703" fill="#fed7a0" stroke="#fff" stroke-miterlimit="10" stroke-width=".5"/>
          <ellipse cx="213.742" cy="229.36" rx="1.873" ry="1.703" fill="#fed7a0" stroke="#fff" stroke-miterlimit="10" stroke-width=".5"/>
          <ellipse cx="231.445" cy="104.667" rx="1.873" ry="1.703" fill="#fed7a0" stroke="#fff" stroke-miterlimit="10" stroke-width=".5"/>
        </g>
        <g id="upper">
          <path id="highlight-2" data-name="highlight" d="M306.332,23.563c46.786,9.917,36.768,81.516,59.659,121.037,9.3,16.056,63.192,51.424,67.345,82.358,2.492,18.56-16.893,36.548-63.181,24.156-57.524-15.4-153.756,51.547-201.993,42.508-21.146-3.963-32.696-12.545-36.985-16.05-28.871-23.595-30.288-63.598-30.704-75.365-1.435-40.514,31.062-53.802,72.241-92.012,37.903-35.17,82.298-97.509,133.618-86.631Z" fill="#f7931d" stroke="#fff" stroke-miterlimit="10"/>
          <ellipse cx="238.501" cy="248.931" rx="1.873" ry="1.703" fill="#f7931d" stroke="#fff" stroke-miterlimit="10" stroke-width=".5"/>
          <ellipse cx="307.459" cy="164.961" rx="1.873" ry="1.703" fill="#f7931d" stroke="#fff" stroke-miterlimit="10" stroke-width=".5"/>
          <ellipse cx="293.748" cy="126.29" rx="1.873" ry="1.703" fill="#f7931d" stroke="#fff" stroke-miterlimit="10" stroke-width=".5"/>
          <ellipse cx="264.063" cy="163.389" rx="1.873" ry="1.703" fill="#f7931d" stroke="#fff" stroke-miterlimit="10" stroke-width=".5"/>
          <ellipse cx="234.641" cy="203.317" rx="1.873" ry="1.703" fill="#f7931d" stroke="#fff" stroke-miterlimit="10" stroke-width=".5"/>
          <ellipse cx="135.335" cy="184.375" rx="1.873" ry="1.703" fill="#f7931d" stroke="#fff" stroke-miterlimit="10" stroke-width=".5"/>
          <ellipse cx="303.992" cy="249.411" rx="1.873" ry="1.703" fill="#f7931d" stroke="#fff" stroke-miterlimit="10" stroke-width=".5"/>
          <ellipse cx="185.787" cy="237.255" rx="1.873" ry="1.703" fill="#f7931d" stroke="#fff" stroke-miterlimit="10" stroke-width=".5"/>
          <ellipse cx="221.192" cy="225.255" rx="1.873" ry="1.703" fill="#f7931d" stroke="#fff" stroke-miterlimit="10" stroke-width=".5"/>
          <ellipse cx="324.89" cy="210.26" rx="1.873" ry="1.703" fill="#f7931d" stroke="#fff" stroke-miterlimit="10" stroke-width=".5"/>
          <ellipse cx="224.79" cy="207.108" rx="1.873" ry="1.703" fill="#f7931d" stroke="#fff" stroke-miterlimit="10" stroke-width=".5"/>
          <ellipse cx="297.337" cy="191.798" rx="1.873" ry="1.703" fill="#f7931d" stroke="#fff" stroke-miterlimit="10" stroke-width=".5"/>
          <ellipse cx="281.634" cy="232.207" rx="1.873" ry="1.703" fill="#f7931d" stroke="#fff" stroke-miterlimit="10" stroke-width=".5"/>
          <ellipse cx="297.337" cy="31.901" rx="1.873" ry="1.703" fill="#f7931d" stroke="#fff" stroke-miterlimit="10" stroke-width=".5"/>
          <ellipse cx="298.001" cy="214.522" rx="1.873" ry="1.703" fill="#f7931d" stroke="#fff" stroke-miterlimit="10" stroke-width=".5"/>
          <ellipse cx="346.461" cy="182.96" rx="1.873" ry="1.703" fill="#f7931d" stroke="#fff" stroke-miterlimit="10" stroke-width=".5"/>
          <ellipse cx="303.066" cy="110.195" rx="1.873" ry="1.703" fill="#f7931d" stroke="#fff" stroke-miterlimit="10" stroke-width=".5"/>
          <ellipse cx="355.247" cy="155.494" rx="1.873" ry="1.703" fill="#f7931d" stroke="#fff" stroke-miterlimit="10" stroke-width=".5"/>
          <ellipse cx="256.867" cy="207.579" rx="1.873" ry="1.703" fill="#f7931d" stroke="#fff" stroke-miterlimit="10" stroke-width=".5"/>
          <ellipse cx="308.253" cy="199.213" rx="1.873" ry="1.703" fill="#f7931d" stroke="#fff" stroke-miterlimit="10" stroke-width=".5"/>
          <ellipse cx="201.227" cy="226.05" rx="1.873" ry="1.703" fill="#f7931d" stroke="#fff" stroke-miterlimit="10" stroke-width=".5"/>
          <ellipse cx="418.205" cy="235.045" rx="1.873" ry="1.703" fill="#f7931d" stroke="#fff" stroke-miterlimit="10" stroke-width=".5"/>
          <ellipse cx="137.195" cy="271.821" rx="1.873" ry="1.703" fill="#f7931d" stroke="#fff" stroke-miterlimit="10" stroke-width=".5"/>
          <ellipse cx="227.453" cy="174.279" rx="1.873" ry="1.703" fill="#f7931d" stroke="#fff" stroke-miterlimit="10" stroke-width=".5"/>
          <ellipse cx="172.076" cy="203.475" rx="1.873" ry="1.703" fill="#f7931d" stroke="#fff" stroke-miterlimit="10" stroke-width=".5"/>
          <ellipse cx="201.498" cy="91.409" rx="1.873" ry="1.703" fill="#f7931d" stroke="#fff" stroke-miterlimit="10" stroke-width=".5"/>
          <ellipse cx="177.132" cy="152.97" rx="1.873" ry="1.703" fill="#f7931d" stroke="#fff" stroke-miterlimit="10" stroke-width=".5"/>
          <ellipse cx="164.225" cy="285.707" rx="1.873" ry="1.703" fill="#f7931d" stroke="#fff" stroke-miterlimit="10" stroke-width=".5"/>
          <ellipse cx="107.913" cy="204.426" rx="1.873" ry="1.703" fill="#f7931d" stroke="#fff" stroke-miterlimit="10" stroke-width=".5"/>
          <ellipse cx="171.01" cy="207.265" rx="1.873" ry="1.703" fill="#f7931d" stroke="#fff" stroke-miterlimit="10" stroke-width=".5"/>
        </g>
        <g id="lower">
          <path id="highlight-3" data-name="highlight" d="M474.351,268.576c10.028-31.243-62.471-91.32-133.896-109.276-13.584-3.415-64.501-15.532-118.796,4.328-40.37,14.766-38.625,31.123-81.999,45.378-51.444,16.907-79.627,2.354-97.921,24.679-12.811,15.635-16.308,43.906-4.777,61.3,21.145,31.895,83.802,13.612,208.58.796,54.624-5.61,97.249-1.115,130.133-2.337,66.594-2.474,93.236-7.918,98.676-24.868Z" fill="#02718e" stroke="#fff" stroke-miterlimit="10"/>
          <ellipse cx="219.602" cy="208.845" rx="1.873" ry="1.703" fill="#02718e" stroke="#fff" stroke-miterlimit="10" stroke-width=".5"/>
          <ellipse cx="333.012" cy="165.598" rx="1.873" ry="1.703" fill="#02718e" stroke="#fff" stroke-miterlimit="10" stroke-width=".5"/>
          <ellipse cx="230.912" cy="246.093" rx="1.873" ry="1.703" fill="#02718e" stroke="#fff" stroke-miterlimit="10" stroke-width=".5"/>
          <ellipse cx="163.552" cy="265.664" rx="1.873" ry="1.703" fill="#02718e" stroke="#fff" stroke-miterlimit="10" stroke-width=".5"/>
          <ellipse cx="241.697" cy="255.56" rx="1.873" ry="1.703" fill="#02718e" stroke="#fff" stroke-miterlimit="10" stroke-width=".5"/>
          <ellipse cx="261.129" cy="210.103" rx="1.873" ry="1.703" fill="#02718e" stroke="#fff" stroke-miterlimit="10" stroke-width=".5"/>
          <ellipse cx="251.147" cy="203.475" rx="1.873" ry="1.703" fill="#02718e" stroke="#fff" stroke-miterlimit="10" stroke-width=".5"/>
          <ellipse cx="140.261" cy="239.15" rx="1.873" ry="1.703" fill="#02718e" stroke="#fff" stroke-miterlimit="10" stroke-width=".5"/>
          <ellipse cx="174.871" cy="268.188" rx="1.873" ry="1.703" fill="#02718e" stroke="#fff" stroke-miterlimit="10" stroke-width=".5"/>
          <ellipse cx="464.133" cy="271.507" rx="1.873" ry="1.703" fill="#02718e" stroke="#fff" stroke-miterlimit="10" stroke-width=".5"/>
          <ellipse cx="80.761" cy="256.669" rx="1.873" ry="1.703" fill="#02718e" stroke="#fff" stroke-miterlimit="10" stroke-width=".5"/>
          <ellipse cx="147.981" cy="215.788" rx="1.873" ry="1.703" fill="#02718e" stroke="#fff" stroke-miterlimit="10" stroke-width=".5"/>
          <ellipse cx="236.501" cy="219.736" rx="1.873" ry="1.703" fill="#02718e" stroke="#fff" stroke-miterlimit="10" stroke-width=".5"/>
          <ellipse cx="79.425" cy="293.444" rx="1.873" ry="1.703" fill="#02718e" stroke="#fff" stroke-miterlimit="10" stroke-width=".5"/>
          <ellipse cx="176.469" cy="241.202" rx="1.873" ry="1.703" fill="#02718e" stroke="#fff" stroke-miterlimit="10" stroke-width=".5"/>
          <ellipse cx="196.433" cy="263.769" rx="1.873" ry="1.703" fill="#02718e" stroke="#fff" stroke-miterlimit="10" stroke-width=".5"/>
          <ellipse cx="97.529" cy="271.821" rx="1.873" ry="1.703" fill="#02718e" stroke="#fff" stroke-miterlimit="10" stroke-width=".5"/>
          <ellipse cx="244.894" cy="203.789" rx="1.873" ry="1.703" fill="#02718e" stroke="#fff" stroke-miterlimit="10" stroke-width=".5"/>
          <ellipse cx="194.171" cy="234.259" rx="1.873" ry="1.703" fill="#02718e" stroke="#fff" stroke-miterlimit="10" stroke-width=".5"/>
          <ellipse cx="149.177" cy="261.088" rx="1.873" ry="1.703" fill="#02718e" stroke="#fff" stroke-miterlimit="10" stroke-width=".5"/>
          <ellipse cx="218.668" cy="175.851" rx="1.873" ry="1.703" fill="#02718e" stroke="#fff" stroke-miterlimit="10" stroke-width=".5"/>
          <ellipse cx="140.793" cy="298.335" rx="1.873" ry="1.703" fill="#02718e" stroke="#fff" stroke-miterlimit="10" stroke-width=".5"/>
          <ellipse cx="289.887" cy="190.689" rx="1.873" ry="1.703" fill="#02718e" stroke="#fff" stroke-miterlimit="10" stroke-width=".5"/>
          <ellipse cx="132.008" cy="234.574" rx="1.873" ry="1.703" fill="#02718e" stroke="#fff" stroke-miterlimit="10" stroke-width=".5"/>
          <ellipse cx="78.49" cy="243.883" rx="1.873" ry="1.703" fill="#02718e" stroke="#fff" stroke-miterlimit="10" stroke-width=".5"/>
          <ellipse cx="88.612" cy="288.397" rx="1.873" ry="1.703" fill="#02718e" stroke="#fff" stroke-miterlimit="10" stroke-width=".5"/>
          <ellipse cx="51.47" cy="239.779" rx="1.873" ry="1.703" fill="#02718e" stroke="#fff" stroke-miterlimit="10" stroke-width=".5"/>
          <ellipse cx="60.526" cy="241.045" rx="1.873" ry="1.703" fill="#02718e" stroke="#fff" stroke-miterlimit="10" stroke-width=".5"/>
          <ellipse cx="222.659" cy="174.908" rx="1.873" ry="1.703" fill="#02718e" stroke="#fff" stroke-miterlimit="10" stroke-width=".5"/>
          <ellipse cx="42.955" cy="286.03" rx="1.873" ry="1.703" fill="#02718e" stroke="#fff" stroke-miterlimit="10" stroke-width=".5"/>
          <ellipse cx="138.261" cy="266.616" rx="1.873" ry="1.703" fill="#02718e" stroke="#fff" stroke-miterlimit="10" stroke-width=".5"/>
          <ellipse cx="366.426" cy="289.811" rx="1.873" ry="1.703" fill="#02718e" stroke="#fff" stroke-miterlimit="10" stroke-width=".5"/>
        </g>
        <g id="lower-middle">
          <path id="highlight-4" data-name="highlight" d="M438.714,308.136c13.864-4.505-42.585-120.607-76.36-136.738-25.363-12.114-78.092-5.516-178.822-12.206-44.564-2.96-67.95,4.958-81.48,15.604-53.105,41.784-73.259,79.273-49.826,113.177,17.503,25.324,41.092,20.539,51.695,20.164,50.618-1.793,125.312-9.802,157.069-11.498,32.067-1.712,147.858,21.203,177.723,11.498Z" fill="#9abec8" stroke="#fff" stroke-miterlimit="10"/>
          <ellipse cx="269.652" cy="169.694" rx="1.873" ry="1.703" fill="#9abec8" stroke="#fff" stroke-miterlimit="10" stroke-width=".5"/>
          <ellipse cx="216.266" cy="276.554" rx="1.873" ry="1.703" fill="#9abec8" stroke="#fff" stroke-miterlimit="10" stroke-width=".5"/>
          <ellipse cx="263.53" cy="233.622" rx="1.873" ry="1.703" fill="#9abec8" stroke="#fff" stroke-miterlimit="10" stroke-width=".5"/>
          <ellipse cx="166.88" cy="248.931" rx="1.873" ry="1.703" fill="#9abec8" stroke="#fff" stroke-miterlimit="10" stroke-width=".5"/>
          <ellipse cx="345.658" cy="189.903" rx="1.873" ry="1.703" fill="#9abec8" stroke="#fff" stroke-miterlimit="10" stroke-width=".5"/>
          <ellipse cx="291.617" cy="233.779" rx="1.873" ry="1.703" fill="#9abec8" stroke="#fff" stroke-miterlimit="10" stroke-width=".5"/>
          <ellipse cx="125.353" cy="252.25" rx="1.873" ry="1.703" fill="#9abec8" stroke="#fff" stroke-miterlimit="10" stroke-width=".5"/>
          <ellipse cx="169.814" cy="269.926" rx="1.873" ry="1.703" fill="#9abec8" stroke="#fff" stroke-miterlimit="10" stroke-width=".5"/>
          <ellipse cx="133.737" cy="260.302" rx="1.873" ry="1.703" fill="#9abec8" stroke="#fff" stroke-miterlimit="10" stroke-width=".5"/>
          <ellipse cx="129.344" cy="235.045" rx="1.873" ry="1.703" fill="#9abec8" stroke="#fff" stroke-miterlimit="10" stroke-width=".5"/>
          <ellipse cx="177.263" cy="240.093" rx="1.873" ry="1.703" fill="#9abec8" stroke="#fff" stroke-miterlimit="10" stroke-width=".5"/>
          <ellipse cx="213.611" cy="231.727" rx="1.873" ry="1.703" fill="#9abec8" stroke="#fff" stroke-miterlimit="10" stroke-width=".5"/>
          <ellipse cx="223.323" cy="290.921" rx="1.873" ry="1.703" fill="#9abec8" stroke="#fff" stroke-miterlimit="10" stroke-width=".5"/>
          <ellipse cx="66.246" cy="271.664" rx="1.873" ry="1.703" fill="#9abec8" stroke="#fff" stroke-miterlimit="10" stroke-width=".5"/>
          <ellipse cx="126.549" cy="242.46" rx="1.873" ry="1.703" fill="#9abec8" stroke="#fff" stroke-miterlimit="10" stroke-width=".5"/>
          <ellipse cx="215.873" cy="248.145" rx="1.873" ry="1.703" fill="#9abec8" stroke="#fff" stroke-miterlimit="10" stroke-width=".5"/>
          <ellipse cx="171.01" cy="251.935" rx="1.873" ry="1.703" fill="#9abec8" stroke="#fff" stroke-miterlimit="10" stroke-width=".5"/>
          <ellipse cx="221.192" cy="241.359" rx="1.873" ry="1.703" fill="#9abec8" stroke="#fff" stroke-miterlimit="10" stroke-width=".5"/>
          <ellipse cx="321.703" cy="236.626" rx="1.873" ry="1.703" fill="#9abec8" stroke="#fff" stroke-miterlimit="10" stroke-width=".5"/>
          <ellipse cx="163.954" cy="182.803" rx="1.873" ry="1.703" fill="#9abec8" stroke="#fff" stroke-miterlimit="10" stroke-width=".5"/>
          <ellipse cx="109.511" cy="178.541" rx="1.873" ry="1.703" fill="#9abec8" stroke="#fff" stroke-miterlimit="10" stroke-width=".5"/>
          <ellipse cx="188.18" cy="169.066" rx="1.873" ry="1.703" fill="#9abec8" stroke="#fff" stroke-miterlimit="10" stroke-width=".5"/>
          <ellipse cx="142.121" cy="227.622" rx="1.873" ry="1.703" fill="#9abec8" stroke="#fff" stroke-miterlimit="10" stroke-width=".5"/>
          <ellipse cx="103.651" cy="305.758" rx="1.873" ry="1.703" fill="#9abec8" stroke="#fff" stroke-miterlimit="10" stroke-width=".5"/>
          <ellipse cx="303.459" cy="211.841" rx="1.873" ry="1.703" fill="#9abec8" stroke="#fff" stroke-miterlimit="10" stroke-width=".5"/>
          <ellipse cx="159.963" cy="229.36" rx="1.873" ry="1.703" fill="#9abec8" stroke="#fff" stroke-miterlimit="10" stroke-width=".5"/>
          <ellipse cx="102.053" cy="277.506" rx="1.873" ry="1.703" fill="#9abec8" stroke="#fff" stroke-miterlimit="10" stroke-width=".5"/>
          <ellipse cx="140.261" cy="264.24" rx="1.873" ry="1.703" fill="#9abec8" stroke="#fff" stroke-miterlimit="10" stroke-width=".5"/>
          <ellipse cx="159.028" cy="251.464" rx="1.873" ry="1.703" fill="#9abec8" stroke="#fff" stroke-miterlimit="10" stroke-width=".5"/>
          <ellipse cx="121.895" cy="273.402" rx="1.873" ry="1.703" fill="#9abec8" stroke="#fff" stroke-miterlimit="10" stroke-width=".5"/>
          <ellipse cx="430.991" cy="305.758" rx="1.873" ry="1.703" fill="#9abec8" stroke="#fff" stroke-miterlimit="10" stroke-width=".5"/>
          <ellipse cx="62.919" cy="284.449" rx="1.873" ry="1.703" fill="#9abec8" stroke="#fff" stroke-miterlimit="10" stroke-width=".5"/>
        </g>
      </g>
    </g>
  </g>
<style>
#g-scatter_profit-margin_avg1-laptop-interactions-img rect, #g-scatter_profit-margin_avg1-laptop-interactions-img circle, #g-scatter_profit-margin_avg1-laptop-interactions-img path, #g-scatter_profit-margin_avg1-laptop-interactions-img line, #g-scatter_profit-margin_avg1-laptop-interactions-img polyline, #g-scatter_profit-margin_avg1-laptop-interactions-img polygon { vector-effect: non-scaling-stroke; }
</style>
</svg>
